<?xml version="1.0" encoding="UTF-8"?>
<svg version="1.1" xmlns="http://www.w3.org/2000/svg" width="514" height="512">
<path d="M0 0 C169.62 0 339.24 0 514 0 C514 168.96 514 337.92 514 512 C344.38 512 174.76 512 0 512 C0 343.04 0 174.08 0 0 Z " fill="#1B3663" transform="translate(0,0)"/>
<path d="M0 0 C3.91398579 1.95699289 6.37384039 4.12983243 9.359375 7.19921875 C10.12148285 7.96912895 10.12148285 7.96912895 10.89898682 8.7545929 C12.52083649 10.39419699 14.1358566 12.04031153 15.75 13.6875 C17.86632735 15.84068042 19.98596765 17.99052002 22.109375 20.13671875 C22.62206436 20.65531464 23.13475372 21.17391052 23.66297913 21.70822144 C27.08117141 25.14168474 30.62016223 28.36209307 34.30517578 31.50317383 C36.93049933 33.82179363 39.23829764 36.38521993 41.5625 39 C46.28108729 44.19934901 51.11893832 49.26397095 56.0625 54.25 C56.70582275 54.90613281 57.34914551 55.56226563 58.01196289 56.23828125 C58.6177417 56.84542969 59.22352051 57.45257813 59.84765625 58.078125 C60.38398682 58.61856445 60.92031738 59.15900391 61.47290039 59.71582031 C63.08789583 61.23405064 63.08789583 61.23405064 66 62 C66 148.79 66 235.58 66 325 C44.22 325 22.44 325 0 325 C0 217.75 0 110.5 0 0 Z " fill="#FCFCFD" transform="translate(289,43)"/>
<path d="M0 0 C0.99 0 1.98 0 3 0 C3 85.47 3 170.94 3 259 C-18.78 259 -40.56 259 -63 259 C-63 193.99 -63 128.98 -63 62 C-62.34 62 -61.68 62 -61 62 C-61 61.34 -61 60.68 -61 60 C-58.06819068 56.78446719 -54.84075747 53.98240009 -51.5625 51.125 C-48.10673474 48.09473662 -45.11184119 44.97104762 -42.2890625 41.34765625 C-41 40 -41 40 -38 39 C-36.71096241 37.50803188 -35.49016022 35.95636119 -34.3125 34.375 C-31.23201815 30.4167765 -28.12013965 27.18036367 -24.27734375 23.984375 C-20.26267062 20.48616926 -16.57627779 16.65004736 -12.83203125 12.8671875 C-12.35846191 12.38991211 -11.88489258 11.91263672 -11.39697266 11.42089844 C-10.02547606 10.02591239 -8.67460001 8.61074863 -7.32421875 7.1953125 C-5 5 -5 5 -2 4 C-2 3.34 -2 2.68 -2 2 C-1.34 2 -0.68 2 0 2 C0 1.34 0 0.68 0 0 Z " fill="#FEFEFE" transform="translate(221,109)"/>
<path d="M0 0 C16.44015529 -0.12032643 16.44015529 -0.12032643 23.47460938 -0.14648438 C28.26532013 -0.16438359 33.05585805 -0.18550629 37.84643555 -0.22631836 C41.71086452 -0.25903248 45.57510802 -0.27687827 49.43966484 -0.28463173 C50.91039383 -0.2901537 52.38111323 -0.3009367 53.85176277 -0.31719017 C55.9197049 -0.33912569 57.98689098 -0.34196036 60.05493164 -0.34057617 C61.81698692 -0.35056892 61.81698692 -0.35056892 63.61463928 -0.36076355 C68.18976351 0.12678806 72.18828321 1.44013622 75.7421875 4.5 C79.6034567 9.61285301 80.17469522 12.96807202 80.25 19.3125 C80.27578125 20.60800781 80.3015625 21.90351563 80.328125 23.23828125 C79.86653798 28.53004676 78.37358574 31.76042262 74.4375 35.3125 C72 37 72 37 70 38 C70.928125 38.4125 71.85625 38.825 72.8125 39.25 C76.12738456 41.06993662 77.25839569 41.72412522 79 45 C79.36186759 48.09485099 79.28154209 51.13967593 79.1875 54.25 C79.125625 57.1375 79.06375 60.025 79 63 C72.4 63 65.8 63 59 63 C58.625 55.5625 58.625 55.5625 58.52197266 53.21704102 C58.41954818 51.47234889 58.21257835 49.73471952 58 48 C54.83538385 46.41769192 51.40920633 46.75842187 47.9296875 46.68359375 C46.73534592 46.6524221 46.73534592 46.6524221 45.51687622 46.62062073 C42.96967315 46.55515851 40.42236575 46.49625585 37.875 46.4375 C36.14972873 46.3943116 34.42446807 46.35069721 32.69921875 46.30664062 C28.46625128 46.19867755 24.23320629 46.09957993 20 46 C20 51.61 20 57.22 20 63 C13.4 63 6.8 63 0 63 C0 42.21 0 21.42 0 0 Z " fill="#F9FAFB" transform="translate(266,392)"/>
<path d="M0 0 C25.41 0 50.82 0 77 0 C77 0.33 77 0.66 77 1 C75.86304687 1.21914063 74.72609375 1.43828125 73.5546875 1.6640625 C52.41129745 5.92127534 32.66564419 14.99958091 19.5703125 32.9609375 C18.70702798 34.30312439 17.8521708 35.65072956 17 37 C16.34 37 15.68 37 15 37 C14.89429688 37.72574219 14.78859375 38.45148437 14.6796875 39.19921875 C13.94164623 42.24045778 12.82351583 44.19712364 11.125 46.8125 C2.93654416 60.14072644 1.53986581 75.03524376 1.61904907 90.40783691 C1.61558256 91.89914875 1.61081139 93.39045801 1.60486734 94.88176203 C1.59246397 98.93495214 1.59847845 102.98792751 1.60782599 107.04111791 C1.61466038 111.42974428 1.60411367 115.8183357 1.59588623 120.20695496 C1.58259321 128.78657884 1.5854068 137.3661237 1.59412415 145.94575059 C1.60091781 152.92276872 1.60181017 159.89976479 1.5985527 166.87678528 C1.598093 167.87232749 1.59763331 168.86786971 1.59715968 169.89357987 C1.59620044 171.9164279 1.59522779 173.93927592 1.5942419 175.96212393 C1.58570099 194.90055974 1.59550172 213.83895188 1.611643 232.77738053 C1.62504499 249.00378986 1.62271654 265.23013479 1.60888672 281.45654297 C1.59280792 300.33031635 1.58652484 319.20405152 1.59572351 338.07783079 C1.59667909 340.09295876 1.5976222 342.10808674 1.5985527 344.12321472 C1.59901553 345.11452303 1.59947836 346.10583134 1.59995521 347.12717929 C1.6025382 354.09039555 1.59818904 361.05358744 1.59111404 368.01679993 C1.58267325 376.51038811 1.58503319 385.00389319 1.60095628 393.49747193 C1.60880441 397.82545041 1.61199008 402.15329067 1.60200882 406.48126793 C1.59298912 410.45255806 1.59811277 414.42358343 1.61394148 418.39484996 C1.6172588 419.82197807 1.61566508 421.24912913 1.60831411 422.67624217 C1.48648111 448.32073838 9.85378221 469.63775581 28 488 C32.63723898 492.50672066 36.97436112 496.52794302 43 499 C43 499.66 43 500.32 43 501 C43.56460938 501.11730469 44.12921875 501.23460937 44.7109375 501.35546875 C47.22877237 502.06441543 49.29776298 503.11932927 51.625 504.3125 C59.36861516 507.93672261 67.66158336 509.35800156 76 511 C76 511.33 76 511.66 76 512 C50.92 512 25.84 512 0 512 C0 343.04 0 174.08 0 0 Z " fill="#FAFCFC" transform="translate(0,0)"/>
<path d="M0 0 C25.08 0 50.16 0 76 0 C76 168.96 76 337.92 76 512 C50.59 512 25.18 512 -1 512 C-1 511.67 -1 511.34 -1 511 C-0.11441406 510.86464844 0.77117187 510.72929687 1.68359375 510.58984375 C18.70215883 507.6324032 34.94170227 501.23201617 47.26171875 488.69921875 C49 487 49 487 51 487 C51.38091797 486.1646875 51.38091797 486.1646875 51.76953125 485.3125 C53.18264196 482.65674907 54.87102656 480.39817319 56.6875 478 C69.74337826 460.2202676 74.49385294 443.51089434 74.38095093 421.59216309 C74.38441744 420.10085125 74.38918861 418.60954199 74.39513266 417.11823797 C74.40753603 413.06504786 74.40152155 409.01207249 74.39217401 404.95888209 C74.38533962 400.57025572 74.39588633 396.1816643 74.40411377 391.79304504 C74.41740679 383.21342116 74.4145932 374.6338763 74.40587585 366.05424941 C74.39908219 359.07723128 74.39818983 352.10023521 74.4014473 345.12321472 C74.40213684 343.6299014 74.40213684 343.6299014 74.40284032 342.10642013 C74.40379956 340.0835721 74.40477221 338.06072408 74.4057581 336.03787607 C74.41429901 317.09944026 74.40449828 298.16104812 74.388357 279.22261947 C74.37495501 262.99621014 74.37728346 246.76986521 74.39111328 230.54345703 C74.40719208 211.66968365 74.41347516 192.79594848 74.40427649 173.92216921 C74.40332091 171.90704124 74.4023778 169.89191326 74.4014473 167.87678528 C74.40098447 166.88547697 74.40052164 165.89416866 74.40004479 164.87282071 C74.3974618 157.90960445 74.40181096 150.94641256 74.40888596 143.98320007 C74.41732675 135.48961189 74.41496681 126.99610681 74.39904372 118.50252807 C74.39119559 114.17454959 74.38800992 109.84670933 74.39799118 105.51873207 C74.40701088 101.54744194 74.40188723 97.57641657 74.38605852 93.60515004 C74.3827412 92.17802193 74.38433492 90.75087087 74.39168589 89.32375783 C74.45255094 76.51233884 72.91585471 64.02850144 67.75 52.1875 C67.44626465 51.4744873 67.1425293 50.76147461 66.82958984 50.02685547 C64.22792043 44.12446055 61.03202227 39.04002783 57 34 C56.34515625 33.09894531 55.6903125 32.19789062 55.015625 31.26953125 C49.05775053 23.38730682 41.87451306 17.43725653 33 13 C33 12.34 33 11.68 33 11 C32.47019531 10.89429688 31.94039063 10.78859375 31.39453125 10.6796875 C28.3243953 9.80822966 25.58289443 8.46750122 22.6875 7.125 C15.30747085 3.81398129 7.97176712 2.27280315 0 1 C0 0.67 0 0.34 0 0 Z " fill="#FBFDFD" transform="translate(438,0)"/>
<path d="M0 0 C1.32 0 2.64 0 4 0 C4.02314315 8.31001875 4.04092518 16.62002408 4.05181217 24.93006706 C4.05703667 28.7885133 4.06412649 32.64693753 4.07543945 36.50537109 C4.08628368 40.2271153 4.09228011 43.9488383 4.09487724 47.67059708 C4.09672871 49.09240172 4.10034403 50.51420517 4.10573006 51.93600082 C4.11296072 53.9233055 4.11340823 55.91063139 4.11352539 57.89794922 C4.115746 59.03046112 4.11796661 60.16297302 4.12025452 61.32980347 C4 64 4 64 3 66 C2.2575 66.433125 1.515 66.86625 0.75 67.3125 C-2.15965968 68.95106053 -2.15965968 68.95106053 -4.6875 71.6875 C-5.8321875 72.8321875 -5.8321875 72.8321875 -7 74 C-7.66 74 -8.32 74 -9 74 C-9.25072266 74.57524414 -9.50144531 75.15048828 -9.75976562 75.74316406 C-11.16728827 78.30441196 -12.78170025 80.04057392 -14.84375 82.109375 C-15.59527344 82.86347656 -16.34679687 83.61757812 -17.12109375 84.39453125 C-17.90613281 85.17183594 -18.69117188 85.94914062 -19.5 86.75 C-20.67755859 87.93916016 -20.67755859 87.93916016 -21.87890625 89.15234375 C-22.63042969 89.90128906 -23.38195312 90.65023437 -24.15625 91.421875 C-24.84525391 92.10862305 -25.53425781 92.79537109 -26.24414062 93.50292969 C-28 95 -28 95 -30 95 C-30 95.66 -30 96.32 -30 97 C-30.66 97 -31.32 97 -32 97 C-32.268125 97.57492188 -32.53625 98.14984375 -32.8125 98.7421875 C-34.03264864 101.06207538 -35.4145552 103.04014008 -37 105.125 C-37.515625 105.80820313 -38.03125 106.49140625 -38.5625 107.1953125 C-40 109 -40 109 -42 111 C-43.32 111 -44.64 111 -46 111 C-46.13924451 102.62880555 -46.24574254 94.25809778 -46.31087303 85.8860302 C-46.34213867 81.99814724 -46.3845206 78.11105862 -46.45263672 74.22363281 C-46.51800505 70.46937423 -46.5537419 66.7158778 -46.56926346 62.9610939 C-46.580319 61.53131236 -46.60190928 60.10157086 -46.63438034 58.67211533 C-46.87772628 47.51187911 -46.87772628 47.51187911 -44.69464111 43.75152588 C-43.08837891 42.07470703 -43.08837891 42.07470703 -40 40 C-39.34 40 -38.68 40 -38 40 C-38 39.34 -38 38.68 -38 38 C-35.56760654 35.35911568 -33.06013877 33.04783765 -30.25 30.8125 C-27.92512612 29.19690923 -27.92512612 29.19690923 -27 27 C-26.26523438 26.56945312 -25.53046875 26.13890625 -24.7734375 25.6953125 C-21.59191837 23.75055292 -19.25306699 21.51812755 -16.625 18.875 C-15.90872437 18.15509888 -15.90872437 18.15509888 -15.17797852 17.4206543 C-11.55414636 13.71736554 -8.35941732 9.79762174 -5.33984375 5.58203125 C-4.89769531 5.05996094 -4.45554687 4.53789063 -4 4 C-3.34 4 -2.68 4 -2 4 C-1.34 2.68 -0.68 1.36 0 0 Z " fill="#F8FAFB" transform="translate(278,52)"/>
<path d="M0 0 C6.27 0 12.54 0 19 0 C19 7.59 19 15.18 19 23 C33.52 23 48.04 23 63 23 C63 15.41 63 7.82 63 0 C69.27 0 75.54 0 82 0 C82 20.79 82 41.58 82 63 C75.73 63 69.46 63 63 63 C63 54.75 63 46.5 63 38 C48.48 38 33.96 38 19 38 C19 46.25 19 54.5 19 63 C12.73 63 6.46 63 0 63 C0 42.21 0 21.42 0 0 Z " fill="#FCFDFD" transform="translate(168,392)"/>
<path d="M0 0 C0.99 0.33 1.98 0.66 3 1 C3 113.86 3 226.72 3 343 C2.34 343 1.68 343 1 343 C0.67 343.66 0.34 344.32 0 345 C0 231.15 0 117.3 0 0 Z " fill="#213457" transform="translate(1,84)"/>
<path d="M0 0 C4.89322186 -0.04599373 9.78568904 -0.08579409 14.67895508 -0.10986328 C16.34239244 -0.11990057 18.00581225 -0.13353331 19.66918945 -0.15087891 C22.06466005 -0.17522749 24.45989668 -0.18650588 26.85546875 -0.1953125 C27.96513252 -0.21079636 27.96513252 -0.21079636 29.09721375 -0.22659302 C33.18331761 -0.22747437 36.3243223 0.17635905 40 2 C40.02696365 3.79158489 40.04637917 5.58328473 40.0625 7.375 C40.07410156 8.37273437 40.08570313 9.37046875 40.09765625 10.3984375 C40 13 40 13 39 15 C35.18311674 16.51468364 30.99375907 16.12565172 26.953125 16.09765625 C26.18192322 16.0962413 25.41072144 16.09482635 24.6161499 16.09336853 C22.16072662 16.08778534 19.70539558 16.07523595 17.25 16.0625 C15.58203257 16.05748283 13.91406371 16.0529203 12.24609375 16.04882812 C8.16399864 16.03867366 4.0821022 16.01909507 0 16 C0 10.72 0 5.44 0 0 Z " fill="#1C3560" transform="translate(286,407)"/>
<path d="M0 0 C0.99 0 1.98 0 3 0 C3 85.47 3 170.94 3 259 C2.67 259 2.34 259 2 259 C1.67 174.85 1.34 90.7 1 4 C-0.32 5.32 -1.64 6.64 -3 8 C-3.66 8 -4.32 8 -5 8 C-5 8.66 -5 9.32 -5 10 C-5.99 9.67 -6.98 9.34 -8 9 C-6.71937515 7.2925002 -5.38232443 5.62626404 -4 4 C-3.34 4 -2.68 4 -2 4 C-2 3.34 -2 2.68 -2 2 C-1.34 2 -0.68 2 0 2 C0 1.34 0 0.68 0 0 Z " fill="#B0B9C8" transform="translate(221,109)"/>
<path d="M0 0 C0.33 0.66 0.66 1.32 1 2 C-1.55398281 6.16204606 -3.95054353 9.22931926 -8 12 C-8.66 12 -9.32 12 -10 12 C-10 75.36 -10 138.72 -10 204 C-10.33 204 -10.66 204 -11 204 C-11 139.98 -11 75.96 -11 10 C-10.34 10 -9.68 10 -9 10 C-9 9.34 -9 8.68 -9 8 C-6.22027515 4.98863141 -3.35088259 2.35802849 0 0 Z " fill="#E9EFFB" transform="translate(169,161)"/>
<path d="M0 0 C0.66 0.33 1.32 0.66 2 1 C1.67 1.99 1.34 2.98 1 4 C0.01 4 -0.98 4 -2 4 C-2 4.66 -2 5.32 -2 6 C-2.99 6.66 -3.98 7.32 -5 8 C-5.6496875 9.175625 -5.6496875 9.175625 -6.3125 10.375 C-8.39051409 13.60746636 -10.75711371 14.99907016 -14 17 C-16.25332314 18.82887043 -16.25332314 18.82887043 -16.24050903 21.51834106 C-16.23606781 22.5797934 -16.23162659 23.64124573 -16.22705078 24.73486328 C-16.22689972 25.93595734 -16.22674866 27.13705139 -16.22659302 28.37454224 C-16.21627045 29.67664642 -16.20594788 30.97875061 -16.1953125 32.3203125 C-16.19158276 33.66266673 -16.18873561 35.00502367 -16.18673706 36.34738159 C-16.17909744 39.882014 -16.1594463 43.41648228 -16.1373291 46.9510498 C-16.11687765 50.5571877 -16.10773685 54.16335209 -16.09765625 57.76953125 C-16.0762006 64.84642135 -16.04206079 71.92319997 -16 79 C-14.02463255 78.65213292 -14.02463255 78.65213292 -12 78 C-11.505 77.01 -11.505 77.01 -11 76 C-10.34 76.33 -9.68 76.66 -9 77 C-9.90172468 78.17825358 -10.82201502 79.34231577 -11.75 80.5 C-12.51570312 81.47453125 -12.51570312 81.47453125 -13.296875 82.46875 C-15 84 -15 84 -19 84 C-19.13924451 75.62880555 -19.24574254 67.25809778 -19.31087303 58.8860302 C-19.34213867 54.99814724 -19.3845206 51.11105862 -19.45263672 47.22363281 C-19.51800505 43.46937423 -19.5537419 39.7158778 -19.56926346 35.9610939 C-19.580319 34.53131236 -19.60190928 33.10157086 -19.63438034 31.67211533 C-19.87772628 20.51187911 -19.87772628 20.51187911 -17.69464111 16.75152588 C-16.08837891 15.07470703 -16.08837891 15.07470703 -13 13 C-12.34 13 -11.68 13 -11 13 C-11 12.34 -11 11.68 -11 11 C-8.56760654 8.35911568 -6.06013877 6.04783765 -3.25 3.8125 C-0.92512612 2.19690923 -0.92512612 2.19690923 0 0 Z " fill="#ABB7C7" transform="translate(251,79)"/>
<path d="M0 0 C0.99 0 1.98 0 3 0 C2.835 1.093125 2.67 2.18625 2.5 3.3125 C1.83377888 8.53905159 1.91298457 13.7404008 2 19 C5.11242607 20.55621304 8.4037395 20.10015273 11.81640625 20.0625 C12.58806625 20.05871338 13.35972626 20.05492676 14.1547699 20.05102539 C16.62406928 20.03878638 19.09325325 20.02015124 21.5625 20 C24.81379878 19.97352311 28.06504085 19.95347462 31.31640625 19.9375 C32.44762657 19.92505249 32.44762657 19.92505249 33.60169983 19.91235352 C35.40135 19.90379016 37.2011195 19.94668009 39 20 C39.33 20.33 39.66 20.66 40 21 C40.66 19.68 41.32 18.36 42 17 C42 18.98 42 20.96 42 23 C28.14 23 14.28 23 0 23 C0 15.41 0 7.82 0 0 Z " fill="#213458" transform="translate(188,392)"/>
<path d="M0 0 C0.66 0.33 1.32 0.66 2 1 C1.24074219 1.73605469 0.48148438 2.47210938 -0.30078125 3.23046875 C-1.30495521 4.2158731 -2.30884654 5.20156552 -3.3125 6.1875 C-3.81201172 6.67025391 -4.31152344 7.15300781 -4.82617188 7.65039062 C-6.98932612 9.78489382 -8.87431674 11.78754365 -10.42578125 14.41015625 C-12.72769983 18.1971836 -15.75608643 21.1246022 -18.875 24.25 C-19.48730469 24.88679688 -20.09960938 25.52359375 -20.73046875 26.1796875 C-26.33747977 31.82271786 -26.33747977 31.82271786 -31 32 C-31 31.34 -31 30.68 -31 30 C-30.01 29.67 -29.02 29.34 -28 29 C-26.71096241 27.50803188 -25.49016022 25.95636119 -24.3125 24.375 C-21.23809745 20.42458802 -18.1355665 17.1900202 -14.296875 14.00390625 C-9.2716483 9.61965234 -4.67828702 4.74846133 0 0 Z " fill="#BBC6D4" transform="translate(211,119)"/>
<path d="M0 0 C13.86 0 27.72 0 42 0 C42 7.92 42 15.84 42 24 C41.67 24 41.34 24 41 24 C41 16.41 41 8.82 41 1 C27.8 1.33 14.6 1.66 1 2 C1.49414414 13.06514443 1.49414414 13.06514443 3 24 C2.01 24.33 1.02 24.66 0 25 C0 16.75 0 8.5 0 0 Z " fill="#213558" transform="translate(188,430)"/>
<path d="M0 0 C0.99 0 1.98 0 3 0 C3 17.49 3 34.98 3 53 C2.67 53 2.34 53 2 53 C1.67 36.83 1.34 20.66 1 4 C-0.32 5.32 -1.64 6.64 -3 8 C-3.66 8 -4.32 8 -5 8 C-5 8.66 -5 9.32 -5 10 C-5.99 9.67 -6.98 9.34 -8 9 C-6.71937515 7.2925002 -5.38232443 5.62626404 -4 4 C-3.34 4 -2.68 4 -2 4 C-2 3.34 -2 2.68 -2 2 C-1.34 2 -0.68 2 0 2 C0 1.34 0 0.68 0 0 Z " fill="#AFB7C7" transform="translate(221,109)"/>
<path d="M0 0 C11.22 0 22.44 0 34 0 C34 0.33 34 0.66 34 1 C32.65252686 1.029729 32.65252686 1.029729 31.27783203 1.06005859 C27.94909922 1.13809261 24.62082744 1.22478114 21.29248047 1.31738281 C19.8511626 1.35569674 18.40974832 1.39054543 16.96826172 1.421875 C14.89776114 1.46747446 12.82792567 1.52547444 10.7578125 1.5859375 C9.5114502 1.6173584 8.26508789 1.6487793 6.98095703 1.68115234 C3.88458224 1.69682309 3.88458224 1.69682309 2 4 C1.75622117 7.35744112 1.75622117 7.35744112 1.875 11.125 C1.90207031 13.04699219 1.90207031 13.04699219 1.9296875 15.0078125 C1.95289063 15.99523437 1.97609375 16.98265625 2 18 C-0.93744524 18.16768291 -3.87494904 18.33418858 -6.8125 18.5 C-7.64587891 18.54769531 -8.47925781 18.59539062 -9.33789062 18.64453125 C-10.14033203 18.68964844 -10.94277344 18.73476563 -11.76953125 18.78125 C-12.50792236 18.82314453 -13.24631348 18.86503906 -14.00708008 18.90820312 C-15.66990494 18.98479533 -17.3354121 19 -19 19 C-19 18.34 -19 17.68 -19 17 C-12.73 17 -6.46 17 0 17 C0 11.39 0 5.78 0 0 Z " fill="#233556" transform="translate(286,438)"/>
<path d="M0 0 C0 3.15084005 -0.45473667 4.33871316 -2 7 C-2.66 7.66 -3.32 8.32 -4 9 C-4.99 9 -5.98 9 -7 9 C-7.12375 9.61875 -7.2475 10.2375 -7.375 10.875 C-8 13 -8 13 -10 15 C-10.99 15 -11.98 15 -13 15 C-13 15.66 -13 16.32 -13 17 C-13.66 16.67 -14.32 16.34 -15 16 C-14.21654285 14.82780457 -13.42297164 13.66236332 -12.625 12.5 C-12.18414062 11.8503125 -11.74328125 11.200625 -11.2890625 10.53125 C-10.65097656 9.77328125 -10.65097656 9.77328125 -10 9 C-9.34 9 -8.68 9 -8 9 C-8 8.34 -8 7.68 -8 7 C-6.25 5.2734375 -6.25 5.2734375 -4 3.375 C-3.2575 2.74335938 -2.515 2.11171875 -1.75 1.4609375 C-1.1725 0.97882813 -0.595 0.49671875 0 0 Z " fill="#5B6C89" transform="translate(256,140)"/>
<path d="M0 0 C0.66 0.33 1.32 0.66 2 1 C1.67 1.99 1.34 2.98 1 4 C0.01 4 -0.98 4 -2 4 C-2 4.66 -2 5.32 -2 6 C-2.99 6.66 -3.98 7.32 -5 8 C-5.6496875 9.175625 -5.6496875 9.175625 -6.3125 10.375 C-9.09307083 14.70033241 -13.40981749 16.88145423 -18 19 C-16.38405168 16.95880212 -14.7143618 14.95927063 -13 13 C-12.34 13 -11.68 13 -11 13 C-11 12.34 -11 11.68 -11 11 C-8.56760654 8.35911568 -6.06013877 6.04783765 -3.25 3.8125 C-0.92512612 2.19690923 -0.92512612 2.19690923 0 0 Z " fill="#AAB5C7" transform="translate(251,79)"/>
<path d="M0 0 C11.55 0 23.1 0 35 0 C35 0.33 35 0.66 35 1 C34.04633545 1.01458252 33.0926709 1.02916504 32.11010742 1.04418945 C28.57066415 1.10217792 25.03185676 1.17940958 21.49291992 1.26245117 C19.96144941 1.29569818 18.42985644 1.32373093 16.89819336 1.34643555 C14.69592113 1.37998718 12.49477088 1.4322991 10.29296875 1.48828125 C9.60849167 1.49467117 8.92401459 1.5010611 8.21879578 1.50764465 C5.24979162 1.5994084 3.4246687 1.66735787 1.04418945 3.53198242 C0.69960693 4.01642822 0.35502441 4.50087402 0 5 C0 3.35 0 1.7 0 0 Z " fill="#243554" transform="translate(286,407)"/>
<path d="M0 0 C0.66 0.33 1.32 0.66 2 1 C2.02696365 2.79158489 2.04637917 4.58328473 2.0625 6.375 C2.07410156 7.37273437 2.08570313 8.37046875 2.09765625 9.3984375 C2 12 2 12 1 14 C-0.32 13.67 -1.64 13.34 -3 13 C-2.34 12.34 -1.68 11.68 -1 11 C-0.79376908 8.38774168 -0.90420198 6.33529307 -1.625 3.8125 C-1.74875 3.214375 -1.8725 2.61625 -2 2 C-1.34 1.34 -0.68 0.68 0 0 Z " fill="#2A3A60" transform="translate(324,408)"/>
<path d="M0 0 C0.33 0.66 0.66 1.32 1 2 C-1.80627778 6.74908547 -4.25091453 9.19372222 -9 12 C-9 8 -9 8 -6.75 5.4375 C-4.55923736 3.49568766 -2.39158986 1.68297064 0 0 Z " fill="#DCE5EC" transform="translate(169,161)"/>
<path d="M0 0 C0.33 0 0.66 0 1 0 C1.66 5.28 2.32 10.56 3 16 C2.01 16.33 1.02 16.66 0 17 C0 11.39 0 5.78 0 0 Z " fill="#203555" transform="translate(345,438)"/>
<path d="M0 0 C0.66 0.99 1.32 1.98 2 3 C1.34 3 0.68 3 0 3 C-0.33 3.66 -0.66 4.32 -1 5 C-4.0318856 6.88186002 -5.24517355 7 -9 7 C-9 6.34 -9 5.68 -9 5 C-6.03 3.35 -3.06 1.7 0 0 Z " fill="#2F4266" transform="translate(51,7)"/>
<path d="M0 0 C-0.99 1.485 -0.99 1.485 -2 3 C-4.62697064 3.22137393 -7.00893964 3.28162025 -9.625 3.1875 C-10.33140625 3.17396484 -11.0378125 3.16042969 -11.765625 3.14648438 C-13.51074128 3.1111104 -15.25546608 3.05730221 -17 3 C-17 2.67 -17 2.34 -17 2 C-14.54316882 1.47097431 -12.08497874 0.95149191 -9.625 0.4375 C-8.92632812 0.28603516 -8.22765625 0.13457031 -7.5078125 -0.02148438 C-2.2265625 -1.11328125 -2.2265625 -1.11328125 0 0 Z " fill="#EDF4F8" transform="translate(454,509)"/>
<path d="M0 0 C-1.28519565 2.86697492 -2.57129254 4.97607712 -5 7 C-5.66 7 -6.32 7 -7 7 C-7 7.66 -7 8.32 -7 9 C-7.99 8.67 -8.98 8.34 -10 8 C-8.71937515 6.2925002 -7.38232443 4.62626404 -6 3 C-5.34 3 -4.68 3 -4 3 C-4 2.34 -4 1.68 -4 1 C-2 0 -2 0 0 0 Z " fill="#C7D1DF" transform="translate(223,110)"/>
<path d="M0 0 C0 3.66842255 -0.79029126 5.10451959 -3 8 C-5.6875 8.8125 -5.6875 8.8125 -8 9 C-7.04270084 7.87411986 -6.08412105 6.7493285 -5.125 5.625 C-4.59132813 4.99851563 -4.05765625 4.37203125 -3.5078125 3.7265625 C-2.38567993 2.44163349 -1.20628025 1.20628025 0 0 Z " fill="#536584" transform="translate(265,131)"/>
<path d="M0 0 C1.31625194 2.63250388 0.74813658 3.80179056 0.0625 6.625 C-0.13214844 7.44226563 -0.32679687 8.25953125 -0.52734375 9.1015625 C-0.68332031 9.72804688 -0.83929688 10.35453125 -1 11 C-3 8 -3 8 -2.75 5.5 C-2 3 -2 3 0 0 Z " fill="#DBE2EA" transform="translate(3,64)"/>
<path d="M0 0 C1.32 0.33 2.64 0.66 4 1 C2.6875 2.5 2.6875 2.5 1 4 C0.01 4 -0.98 4 -2 4 C-2 4.66 -2 5.32 -2 6 C-2.66 5.67 -3.32 5.34 -4 5 C-2.68 3.35 -1.36 1.7 0 0 Z " fill="#415476" transform="translate(245,151)"/>
<path d="M0 0 C0.99 0.33 1.98 0.66 3 1 C2.01 1.33 1.02 1.66 0 2 C0.33 2.99 0.66 3.98 1 5 C-0.98 4.34 -2.96 3.68 -5 3 C-2 1 -2 1 0 0 Z " fill="#223352" transform="translate(340,427)"/>
<path d="M0 0 C2.99324263 1.0975223 3.84610901 1.67682892 5.25 4.625 C5.4975 5.40875 5.745 6.1925 6 7 C4.68 6.34 3.36 5.68 2 5 C2 4.34 2 3.68 2 3 C1.34 3 0.68 3 0 3 C0 2.01 0 1.02 0 0 Z " fill="#2A3D61" transform="translate(493,33)"/>
<path d="M0 0 C1.98 0.66 3.96 1.32 6 2 C3.64046906 4.35953094 2.22104383 4.49141413 -1 5 C-0.67 3.35 -0.34 1.7 0 0 Z " fill="#2A4066" transform="translate(465,9)"/>
<path d="M0 0 C3.96 0 7.92 0 12 0 C11.67 0.99 11.34 1.98 11 3 C7.37 2.34 3.74 1.68 0 1 C0 0.67 0 0.34 0 0 Z " fill="#E9F0F5" transform="translate(438,0)"/>
<path d="M0 0 C0.33 0.66 0.66 1.32 1 2 C-1 5 -1 5 -3.625 5.6875 C-4.800625 5.8421875 -4.800625 5.8421875 -6 6 C-2.25 1.125 -2.25 1.125 0 0 Z " fill="#ADB8C9" transform="translate(169,161)"/>
</svg>
