<?xml version="1.0" encoding="UTF-8"?>
<!DOCTYPE svg PUBLIC "-//W3C//DTD SVG 1.1//EN" "http://www.w3.org/Graphics/SVG/1.1/DTD/svg11.dtd">
<svg xmlns="http://www.w3.org/2000/svg" version="1.1" width="625px" height="625px" style="shape-rendering:geometricPrecision; text-rendering:geometricPrecision; image-rendering:optimizeQuality; fill-rule:evenodd; clip-rule:evenodd" xmlns:xlink="http://www.w3.org/1999/xlink">
<g><path style="opacity:0.998" fill="#109e90" d="M 185.5,9.5 C 185.5,53.1667 185.5,96.8333 185.5,140.5C 174.654,140.172 163.987,140.506 153.5,141.5C 147.839,141.578 144.005,144.244 142,149.5C 141.333,185.5 141.333,221.5 142,257.5C 143.072,261.573 145.572,264.407 149.5,266C 156.826,266.5 164.159,266.666 171.5,266.5C 176.167,266.5 180.833,266.5 185.5,266.5C 185.5,275.167 185.5,283.833 185.5,292.5C 173.495,292.333 161.495,292.5 149.5,293C 145.667,294.167 143.167,296.667 142,300.5C 141.5,317.497 141.333,334.497 141.5,351.5C 141.5,365.833 141.5,380.167 141.5,394.5C 141.5,415.167 141.5,435.833 141.5,456.5C 141.334,462.176 141.501,467.843 142,473.5C 142.625,477.109 144.458,479.776 147.5,481.5C 147.062,481.435 146.728,481.601 146.5,482C 160.054,501.381 173.388,520.881 186.5,540.5C 185.502,564.994 185.169,589.661 185.5,614.5C 165.11,614.985 144.776,614.318 124.5,612.5C 124.5,412.167 124.5,211.833 124.5,11.5C 144.776,9.68151 165.11,9.01485 185.5,9.5 Z"/></g>
<g><path style="opacity:0.998" fill="#15a294" d="M 185.5,9.5 C 204.167,9.5 222.833,9.5 241.5,9.5C 241.5,53.1667 241.5,96.8333 241.5,140.5C 222.833,140.5 204.167,140.5 185.5,140.5C 185.5,96.8333 185.5,53.1667 185.5,9.5 Z"/></g>
<g><path style="opacity:0.999" fill="#1ea698" d="M 241.5,9.5 C 262.5,9.5 283.5,9.5 304.5,9.5C 304.5,167.167 304.5,324.833 304.5,482.5C 302.5,482.5 300.5,482.5 298.5,482.5C 295.5,482.5 292.5,482.5 289.5,482.5C 293.722,481.449 296.555,478.782 298,474.5C 298.5,447.169 298.667,419.835 298.5,392.5C 298.5,376.167 298.5,359.833 298.5,343.5C 298.667,329.163 298.5,314.829 298,300.5C 296.917,296.582 294.417,294.248 290.5,293.5C 274.578,292.516 258.578,292.183 242.5,292.5C 228.167,292.5 213.833,292.5 199.5,292.5C 194.833,292.5 190.167,292.5 185.5,292.5C 185.5,283.833 185.5,275.167 185.5,266.5C 197.167,266.5 208.833,266.5 220.5,266.5C 243.502,266.667 266.502,266.5 289.5,266C 293.68,264.998 296.514,262.498 298,258.5C 298.5,234.836 298.667,211.169 298.5,187.5C 298.667,174.496 298.5,161.496 298,148.5C 296.924,145.921 295.091,144.254 292.5,143.5C 291.737,142.732 290.737,142.232 289.5,142C 244.168,141.5 198.835,141.333 153.5,141.5C 163.987,140.506 174.654,140.172 185.5,140.5C 204.167,140.5 222.833,140.5 241.5,140.5C 241.5,96.8333 241.5,53.1667 241.5,9.5 Z"/></g>
<g><path style="opacity:0.999" fill="#22aa9b" d="M 304.5,9.5 C 318.167,9.5 331.833,9.5 345.5,9.5C 345.5,53.1667 345.5,96.8333 345.5,140.5C 342.615,140.194 339.948,140.527 337.5,141.5C 331.839,141.578 328.005,144.244 326,149.5C 325.5,172.164 325.333,194.831 325.5,217.5C 325.5,234.833 325.5,252.167 325.5,269.5C 325.5,290.167 325.5,310.833 325.5,331.5C 323.87,339.584 326.87,344.918 334.5,347.5C 354.66,348.497 374.993,348.83 395.5,348.5C 395.5,357.167 395.5,365.833 395.5,374.5C 375.326,374.17 355.326,374.503 335.5,375.5C 331.088,376.07 327.922,378.403 326,382.5C 325.5,409.498 325.333,436.498 325.5,463.5C 324.931,468.777 325.765,473.777 328,478.5C 328.816,479.823 329.983,480.489 331.5,480.5C 332.167,481.167 332.833,481.833 333.5,482.5C 323.833,482.5 314.167,482.5 304.5,482.5C 304.5,324.833 304.5,167.167 304.5,9.5 Z"/></g>
<g><path style="opacity:0.998" fill="#26ac9e" d="M 345.5,9.5 C 362.167,9.5 378.833,9.5 395.5,9.5C 395.5,53.1667 395.5,96.8333 395.5,140.5C 378.833,140.5 362.167,140.5 345.5,140.5C 345.5,96.8333 345.5,53.1667 345.5,9.5 Z"/></g>
<g><path style="opacity:0.998" fill="#2bb0a1" d="M 395.5,9.5 C 411.167,9.5 426.833,9.5 442.5,9.5C 442.5,53.1667 442.5,96.8333 442.5,140.5C 426.833,140.5 411.167,140.5 395.5,140.5C 395.5,96.8333 395.5,53.1667 395.5,9.5 Z"/></g>
<g><path style="opacity:0.998" fill="#31b3a4" d="M 442.5,9.5 C 457.17,9.33342 471.837,9.50009 486.5,10C 491.389,10.354 496.056,11.1873 500.5,12.5C 500.5,69.8333 500.5,127.167 500.5,184.5C 494.514,173.865 488.514,163.199 482.5,152.5C 482.135,148.263 480.135,145.096 476.5,143C 468.585,141.599 460.585,141.099 452.5,141.5C 435.167,141.5 417.833,141.5 400.5,141.5C 379.5,141.5 358.5,141.5 337.5,141.5C 339.948,140.527 342.615,140.194 345.5,140.5C 362.167,140.5 378.833,140.5 395.5,140.5C 411.167,140.5 426.833,140.5 442.5,140.5C 442.5,96.8333 442.5,53.1667 442.5,9.5 Z"/></g>
<g><path style="opacity:0.998" fill="#099a8d" d="M 124.5,11.5 C 124.5,211.833 124.5,412.167 124.5,612.5C 105.526,608.848 88.1923,601.515 72.5,590.5C 72.5,404.833 72.5,219.167 72.5,33.5C 88.1923,22.4852 105.526,15.1519 124.5,11.5 Z"/></g>
<g><path style="opacity:0.998" fill="#36b6a7" d="M 500.5,12.5 C 515.92,15.0822 530.253,20.4155 543.5,28.5C 543.5,106.833 543.5,185.167 543.5,263.5C 533.833,246.167 524.167,228.833 514.5,211.5C 510.101,202.37 505.435,193.37 500.5,184.5C 500.5,127.167 500.5,69.8333 500.5,12.5 Z"/></g>
<g><path style="opacity:0.997" fill="#3bb9aa" d="M 543.5,28.5 C 563.733,39.3995 579.733,54.7328 591.5,74.5C 591.5,166.833 591.5,259.167 591.5,351.5C 588.086,345.003 584.419,338.67 580.5,332.5C 568.434,309.368 556.1,286.368 543.5,263.5C 543.5,185.167 543.5,106.833 543.5,28.5 Z"/></g>
<g><path style="opacity:0.997" fill="#04978a" d="M 72.5,33.5 C 72.5,219.167 72.5,404.833 72.5,590.5C 57.5453,581.212 45.212,569.212 35.5,554.5C 35.5,392.833 35.5,231.167 35.5,69.5C 45.212,54.7878 57.5453,42.7878 72.5,33.5 Z"/></g>
<g><path style="opacity:0.996" fill="#019588" d="M 35.5,69.5 C 35.5,231.167 35.5,392.833 35.5,554.5C 21.0122,534.218 12.5122,511.551 10,486.5C 9.33333,370.167 9.33333,253.833 10,137.5C 12.5122,112.449 21.0122,89.7818 35.5,69.5 Z"/></g>
<g><path style="opacity:0.978" fill="#3fbcac" d="M 591.5,74.5 C 604.581,93.3634 612.081,114.363 614,137.5C 614.833,254.001 614.666,370.334 613.5,486.5C 613.667,454.832 613.5,423.165 613,391.5C 605.581,378.33 598.414,364.997 591.5,351.5C 591.5,259.167 591.5,166.833 591.5,74.5 Z"/></g>
<g><path style="opacity:1" fill="#fdfdfd" d="M 153.5,141.5 C 198.835,141.333 244.168,141.5 289.5,142C 290.737,142.232 291.737,142.732 292.5,143.5C 252.529,184.805 212.195,225.805 171.5,266.5C 164.159,266.666 156.826,266.5 149.5,266C 145.572,264.407 143.072,261.573 142,257.5C 141.333,221.5 141.333,185.5 142,149.5C 144.005,144.244 147.839,141.578 153.5,141.5 Z"/></g>
<g><path style="opacity:1" fill="#efeff0" d="M 337.5,141.5 C 358.5,141.5 379.5,141.5 400.5,141.5C 376.196,167.471 351.196,192.804 325.5,217.5C 325.333,194.831 325.5,172.164 326,149.5C 328.005,144.244 331.839,141.578 337.5,141.5 Z"/></g>
<g><path style="opacity:1" fill="#e8e9ea" d="M 400.5,141.5 C 417.833,141.5 435.167,141.5 452.5,141.5C 440.167,154.5 427.5,167.167 414.5,179.5C 409.72,174.389 404.053,173.223 397.5,176C 393.402,179.514 391.402,184.014 391.5,189.5C 378.886,194.746 371.553,204.079 369.5,217.5C 368.679,220.641 368.179,223.975 368,227.5C 353.965,241.702 339.799,255.702 325.5,269.5C 325.5,252.167 325.5,234.833 325.5,217.5C 351.196,192.804 376.196,167.471 400.5,141.5 Z"/></g>
<g><path style="opacity:1" fill="#e2e3e4" d="M 452.5,141.5 C 460.585,141.099 468.585,141.599 476.5,143C 480.135,145.096 482.135,148.263 482.5,152.5C 482.5,154.167 482.5,155.833 482.5,157.5C 466.14,173.194 450.14,189.194 434.5,205.5C 430.242,198.346 424.242,193.012 416.5,189.5C 415.67,186.179 415.003,182.846 414.5,179.5C 427.5,167.167 440.167,154.5 452.5,141.5 Z"/></g>
<g><path style="opacity:1" fill="#f6f6f7" d="M 292.5,143.5 C 295.091,144.254 296.924,145.921 298,148.5C 298.5,161.496 298.667,174.496 298.5,187.5C 272.527,213.806 246.527,240.14 220.5,266.5C 208.833,266.5 197.167,266.5 185.5,266.5C 180.833,266.5 176.167,266.5 171.5,266.5C 212.195,225.805 252.529,184.805 292.5,143.5 Z"/></g>
<g><path style="opacity:1" fill="#2a9589" d="M 482.5,152.5 C 488.514,163.199 494.514,173.865 500.5,184.5C 505.435,193.37 510.101,202.37 514.5,211.5C 514.831,343.903 514.498,476.237 513.5,608.5C 504.761,611.402 495.761,613.236 486.5,614C 403.501,614.5 320.501,614.667 237.5,614.5C 237.5,614.167 237.5,613.833 237.5,613.5C 240.833,613.5 244.167,613.5 247.5,613.5C 264.5,613.5 281.5,613.5 298.5,613.5C 330.833,613.5 363.167,613.5 395.5,613.5C 410.167,613.5 424.833,613.5 439.5,613.5C 439.5,570.167 439.5,526.833 439.5,483.5C 424.833,483.5 410.167,483.5 395.5,483.5C 375.66,483.83 355.993,483.497 336.5,482.5C 345.833,482.5 355.167,482.5 364.5,482.5C 380.5,482.5 396.5,482.5 412.5,482.5C 432.836,482.667 453.169,482.5 473.5,482C 478.333,481.167 481.167,478.333 482,473.5C 482.5,453.169 482.667,432.836 482.5,412.5C 482.5,402.5 482.5,392.5 482.5,382.5C 482.5,368.167 482.5,353.833 482.5,339.5C 482.5,311.833 482.5,284.167 482.5,256.5C 482.5,239.833 482.5,223.167 482.5,206.5C 482.5,190.167 482.5,173.833 482.5,157.5C 482.5,155.833 482.5,154.167 482.5,152.5 Z"/></g>
<g><path style="opacity:1" fill="#dcdedf" d="M 482.5,157.5 C 482.5,173.833 482.5,190.167 482.5,206.5C 466.473,221.86 450.806,237.527 435.5,253.5C 432.093,247.257 427.427,242.09 421.5,238C 413.293,235.16 404.959,232.826 396.5,231C 390.212,222.72 391.545,216.053 400.5,211C 406.186,209.896 410.686,211.729 414,216.5C 415.091,220.46 416.091,224.46 417,228.5C 420.788,233.153 425.622,234.653 431.5,233C 434.333,231.5 436.5,229.333 438,226.5C 439.391,219.012 438.224,212.012 434.5,205.5C 450.14,189.194 466.14,173.194 482.5,157.5 Z"/></g>
<g><path style="opacity:1" fill="#f0f0f1" d="M 298.5,187.5 C 298.667,211.169 298.5,234.836 298,258.5C 296.514,262.498 293.68,264.998 289.5,266C 266.502,266.5 243.502,266.667 220.5,266.5C 246.527,240.14 272.527,213.806 298.5,187.5 Z"/></g>
<g><path style="opacity:1" fill="#2e988b" d="M 514.5,211.5 C 524.167,228.833 533.833,246.167 543.5,263.5C 556.1,286.368 568.434,309.368 580.5,332.5C 580.5,409.833 580.5,487.167 580.5,564.5C 562.726,585.902 540.392,600.568 513.5,608.5C 514.498,476.237 514.831,343.903 514.5,211.5 Z"/></g>
<g><path style="opacity:1" fill="#d6d8d9" d="M 482.5,206.5 C 482.5,223.167 482.5,239.833 482.5,256.5C 451.804,286.195 421.804,316.529 392.5,347.5C 376.167,347.5 359.833,347.5 343.5,347.5C 357.767,331.731 372.6,316.398 388,301.5C 388.464,300.906 388.631,300.239 388.5,299.5C 389.721,300.028 390.887,300.695 392,301.5C 391.777,312.281 396.943,317.114 407.5,316C 413.516,313.146 416.35,308.313 416,301.5C 436.497,291.175 442.997,275.175 435.5,253.5C 450.806,237.527 466.473,221.86 482.5,206.5 Z"/></g>
<g><path style="opacity:1" fill="#e1e2e3" d="M 369.5,217.5 C 367.968,235.277 375.301,247.777 391.5,255C 397.84,256.416 404.174,257.749 410.5,259C 417.419,266.41 416.752,273.077 408.5,279C 403.243,280.426 398.743,279.259 395,275.5C 393.349,271.255 392.016,266.921 391,262.5C 382.41,253.87 375.076,254.87 369,265.5C 368.657,272.11 369.824,278.444 372.5,284.5C 356.473,299.86 340.806,315.527 325.5,331.5C 325.5,310.833 325.5,290.167 325.5,269.5C 339.799,255.702 353.965,241.702 368,227.5C 368.179,223.975 368.679,220.641 369.5,217.5 Z"/></g>
<g><path style="opacity:1" fill="#2dafa0" d="M 414.5,179.5 C 415.003,182.846 415.67,186.179 416.5,189.5C 424.242,193.012 430.242,198.346 434.5,205.5C 438.224,212.012 439.391,219.012 438,226.5C 436.5,229.333 434.333,231.5 431.5,233C 425.622,234.653 420.788,233.153 417,228.5C 416.091,224.46 415.091,220.46 414,216.5C 410.686,211.729 406.186,209.896 400.5,211C 391.545,216.053 390.212,222.72 396.5,231C 404.959,232.826 413.293,235.16 421.5,238C 427.427,242.09 432.093,247.257 435.5,253.5C 442.997,275.175 436.497,291.175 416,301.5C 416.35,308.313 413.516,313.146 407.5,316C 396.943,317.114 391.777,312.281 392,301.5C 390.887,300.695 389.721,300.028 388.5,299.5C 381.855,295.854 376.522,290.854 372.5,284.5C 369.824,278.444 368.657,272.11 369,265.5C 375.076,254.87 382.41,253.87 391,262.5C 392.016,266.921 393.349,271.255 395,275.5C 398.743,279.259 403.243,280.426 408.5,279C 416.752,273.077 417.419,266.41 410.5,259C 404.174,257.749 397.84,256.416 391.5,255C 375.301,247.777 367.968,235.277 369.5,217.5C 371.553,204.079 378.886,194.746 391.5,189.5C 391.402,184.014 393.402,179.514 397.5,176C 404.053,173.223 409.72,174.389 414.5,179.5 Z"/></g>
<g><path style="opacity:1" fill="#d0d1d3" d="M 482.5,256.5 C 482.5,284.167 482.5,311.833 482.5,339.5C 481.105,342.733 478.772,345.233 475.5,347C 447.835,347.5 420.169,347.667 392.5,347.5C 421.804,316.529 451.804,286.195 482.5,256.5 Z"/></g>
<g><path style="opacity:1" fill="#dcddde" d="M 372.5,284.5 C 376.522,290.854 381.855,295.854 388.5,299.5C 388.631,300.239 388.464,300.906 388,301.5C 372.6,316.398 357.767,331.731 343.5,347.5C 340.5,347.5 337.5,347.5 334.5,347.5C 326.87,344.918 323.87,339.584 325.5,331.5C 340.806,315.527 356.473,299.86 372.5,284.5 Z"/></g>
<g><path style="opacity:1" fill="#f4f5f5" d="M 185.5,292.5 C 190.167,292.5 194.833,292.5 199.5,292.5C 180.863,312.804 161.53,332.47 141.5,351.5C 141.333,334.497 141.5,317.497 142,300.5C 143.167,296.667 145.667,294.167 149.5,293C 161.495,292.5 173.495,292.333 185.5,292.5 Z"/></g>
<g><path style="opacity:1" fill="#eff0f0" d="M 199.5,292.5 C 213.833,292.5 228.167,292.5 242.5,292.5C 209.529,327.138 175.862,361.138 141.5,394.5C 141.5,380.167 141.5,365.833 141.5,351.5C 161.53,332.47 180.863,312.804 199.5,292.5 Z"/></g>
<g><path style="opacity:1" fill="#e3e4e5" d="M 290.5,293.5 C 294.417,294.248 296.917,296.582 298,300.5C 298.5,314.829 298.667,329.163 298.5,343.5C 281.673,359.494 265.34,375.994 249.5,393C 248.906,393.464 248.239,393.631 247.5,393.5C 242.183,389.343 236.183,386.509 229.5,385C 241.133,378.566 245.967,368.733 244,355.5C 242.773,351.789 240.94,348.455 238.5,345.5C 256.167,328.5 273.5,311.167 290.5,293.5 Z"/></g>
<g><path style="opacity:1" fill="#339b8e" d="M 580.5,332.5 C 584.419,338.67 588.086,345.003 591.5,351.5C 598.414,364.997 605.581,378.33 613,391.5C 613.5,423.165 613.667,454.832 613.5,486.5C 611.233,516.348 600.233,542.348 580.5,564.5C 580.5,487.167 580.5,409.833 580.5,332.5 Z"/></g>
<g><path style="opacity:1" fill="#18a294" d="M 238.5,345.5 C 240.94,348.455 242.773,351.789 244,355.5C 245.967,368.733 241.133,378.566 229.5,385C 236.183,386.509 242.183,389.343 247.5,393.5C 256.929,402.362 263.262,413.029 266.5,425.5C 266.5,429.5 266.5,433.5 266.5,437.5C 262.167,437.5 257.833,437.5 253.5,437.5C 237.167,437.5 220.833,437.5 204.5,437.5C 194.167,437.5 183.833,437.5 173.5,437.5C 173.353,432.786 173.686,428.119 174.5,423.5C 179.466,404.036 191.466,391.202 210.5,385C 195.515,375.754 192.015,363.254 200,347.5C 212.209,334.86 225.042,334.193 238.5,345.5 Z"/></g>
<g><path style="opacity:1" fill="#e9eaea" d="M 242.5,292.5 C 258.578,292.183 274.578,292.516 290.5,293.5C 273.5,311.167 256.167,328.5 238.5,345.5C 225.042,334.193 212.209,334.86 200,347.5C 192.015,363.254 195.515,375.754 210.5,385C 191.466,391.202 179.466,404.036 174.5,423.5C 163.14,434.194 152.14,445.194 141.5,456.5C 141.5,435.833 141.5,415.167 141.5,394.5C 175.862,361.138 209.529,327.138 242.5,292.5 Z"/></g>
<g><path style="opacity:1" fill="#39b2a4" d="M 482.5,339.5 C 482.5,353.833 482.5,368.167 482.5,382.5C 480.967,380.645 479.3,378.812 477.5,377C 474.649,375.711 471.649,375.211 468.5,375.5C 457.833,375.5 447.167,375.5 436.5,375.5C 428.5,375.5 420.5,375.5 412.5,375.5C 386.833,375.5 361.167,375.5 335.5,375.5C 355.326,374.503 375.326,374.17 395.5,374.5C 395.5,365.833 395.5,357.167 395.5,348.5C 374.993,348.83 354.66,348.497 334.5,347.5C 337.5,347.5 340.5,347.5 343.5,347.5C 359.833,347.5 376.167,347.5 392.5,347.5C 420.169,347.667 447.835,347.5 475.5,347C 478.772,345.233 481.105,342.733 482.5,339.5 Z"/></g>
<g><path style="opacity:1" fill="#dddedf" d="M 298.5,343.5 C 298.5,359.833 298.5,376.167 298.5,392.5C 287.134,402.865 276.467,413.865 266.5,425.5C 263.262,413.029 256.929,402.362 247.5,393.5C 248.239,393.631 248.906,393.464 249.5,393C 265.34,375.994 281.673,359.494 298.5,343.5 Z"/></g>
<g><path style="opacity:1" fill="#d1d2d3" d="M 335.5,375.5 C 361.167,375.5 386.833,375.5 412.5,375.5C 383.473,404.86 354.473,434.194 325.5,463.5C 325.333,436.498 325.5,409.498 326,382.5C 327.922,378.403 331.088,376.07 335.5,375.5 Z"/></g>
<g><path style="opacity:1" fill="#cccecf" d="M 412.5,375.5 C 420.5,375.5 428.5,375.5 436.5,375.5C 402.479,411.521 367.479,446.521 331.5,480.5C 329.983,480.489 328.816,479.823 328,478.5C 325.765,473.777 324.931,468.777 325.5,463.5C 354.473,434.194 383.473,404.86 412.5,375.5 Z"/></g>
<g><path style="opacity:1" fill="#c9cbcc" d="M 436.5,375.5 C 447.167,375.5 457.833,375.5 468.5,375.5C 433.833,411.167 399.167,446.833 364.5,482.5C 355.167,482.5 345.833,482.5 336.5,482.5C 335.5,482.5 334.5,482.5 333.5,482.5C 332.833,481.833 332.167,481.167 331.5,480.5C 367.479,446.521 402.479,411.521 436.5,375.5 Z"/></g>
<g><path style="opacity:1" fill="#c4c6c8" d="M 468.5,375.5 C 471.649,375.211 474.649,375.711 477.5,377C 479.3,378.812 480.967,380.645 482.5,382.5C 482.5,392.5 482.5,402.5 482.5,412.5C 458.833,435.5 435.5,458.833 412.5,482.5C 396.5,482.5 380.5,482.5 364.5,482.5C 399.167,446.833 433.833,411.167 468.5,375.5 Z"/></g>
<g><path style="opacity:1" fill="#d6d7d8" d="M 298.5,392.5 C 298.667,419.835 298.5,447.169 298,474.5C 296.555,478.782 293.722,481.449 289.5,482.5C 262.833,482.5 236.167,482.5 209.5,482.5C 224.167,467.5 238.833,452.5 253.5,437.5C 257.833,437.5 262.167,437.5 266.5,437.5C 266.5,433.5 266.5,429.5 266.5,425.5C 276.467,413.865 287.134,402.865 298.5,392.5 Z"/></g>
<g><path style="opacity:1" fill="#e2e3e4" d="M 174.5,423.5 C 173.686,428.119 173.353,432.786 173.5,437.5C 183.833,437.5 194.167,437.5 204.5,437.5C 189.802,452.197 175.469,467.197 161.5,482.5C 158.833,482.5 156.167,482.5 153.5,482.5C 151.435,482.483 149.435,482.15 147.5,481.5C 144.458,479.776 142.625,477.109 142,473.5C 141.501,467.843 141.334,462.176 141.5,456.5C 152.14,445.194 163.14,434.194 174.5,423.5 Z"/></g>
<g><path style="opacity:1" fill="#bec0c2" d="M 482.5,412.5 C 482.667,432.836 482.5,453.169 482,473.5C 481.167,478.333 478.333,481.167 473.5,482C 453.169,482.5 432.836,482.667 412.5,482.5C 435.5,458.833 458.833,435.5 482.5,412.5 Z"/></g>
<g><path style="opacity:1" fill="#dddedf" d="M 204.5,437.5 C 220.833,437.5 237.167,437.5 253.5,437.5C 238.833,452.5 224.167,467.5 209.5,482.5C 193.5,482.5 177.5,482.5 161.5,482.5C 175.469,467.197 189.802,452.197 204.5,437.5 Z"/></g>
<g><path style="opacity:1" fill="#1c8c81" d="M 298.5,482.5 C 300.5,482.5 302.5,482.5 304.5,482.5C 314.167,482.5 323.833,482.5 333.5,482.5C 334.5,482.5 335.5,482.5 336.5,482.5C 355.993,483.497 375.66,483.83 395.5,483.5C 395.5,526.833 395.5,570.167 395.5,613.5C 363.167,613.5 330.833,613.5 298.5,613.5C 298.5,569.833 298.5,526.167 298.5,482.5 Z"/></g>
<g><path style="opacity:1" fill="#11857a" d="M 147.5,481.5 C 149.435,482.15 151.435,482.483 153.5,482.5C 184.662,483.498 215.996,483.832 247.5,483.5C 247.5,526.833 247.5,570.167 247.5,613.5C 244.167,613.5 240.833,613.5 237.5,613.5C 220.254,589.341 203.254,565.008 186.5,540.5C 173.388,520.881 160.054,501.381 146.5,482C 146.728,481.601 147.062,481.435 147.5,481.5 Z"/></g>
<g><path style="opacity:1" fill="#17897e" d="M 153.5,482.5 C 156.167,482.5 158.833,482.5 161.5,482.5C 177.5,482.5 193.5,482.5 209.5,482.5C 236.167,482.5 262.833,482.5 289.5,482.5C 292.5,482.5 295.5,482.5 298.5,482.5C 298.5,526.167 298.5,569.833 298.5,613.5C 281.5,613.5 264.5,613.5 247.5,613.5C 247.5,570.167 247.5,526.833 247.5,483.5C 215.996,483.832 184.662,483.498 153.5,482.5 Z"/></g>
<g><path style="opacity:1" fill="#239084" d="M 395.5,483.5 C 410.167,483.5 424.833,483.5 439.5,483.5C 439.5,526.833 439.5,570.167 439.5,613.5C 424.833,613.5 410.167,613.5 395.5,613.5C 395.5,570.167 395.5,526.833 395.5,483.5 Z"/></g>
<g><path style="opacity:0.995" fill="#14a193" d="M 186.5,540.5 C 203.254,565.008 220.254,589.341 237.5,613.5C 237.5,613.833 237.5,614.167 237.5,614.5C 220.167,614.5 202.833,614.5 185.5,614.5C 185.169,589.661 185.502,564.994 186.5,540.5 Z"/></g>
</svg>
