<?xml version="1.0" encoding="UTF-8"?>
<svg version="1.1" xmlns="http://www.w3.org/2000/svg" width="571" height="549">
<path d="M0 0 C1.45740918 -0.00374221 2.91481636 -0.008346 4.3722204 -0.01373065 C8.3549175 -0.02590571 12.33753025 -0.0257067 16.32024169 -0.02334189 C20.62444701 -0.02293233 24.92862578 -0.03398624 29.2328186 -0.04345703 C37.65769831 -0.06003823 46.08255003 -0.06556529 54.50744469 -0.06668179 C61.35966662 -0.06763371 68.21187935 -0.07175118 75.06409836 -0.07808304 C94.51345599 -0.09568822 113.96279159 -0.10492314 133.41215725 -0.10342209 C134.98346549 -0.10330222 134.98346549 -0.10330222 136.58651733 -0.10317993 C138.1597558 -0.10305729 138.1597558 -0.10305729 139.76477687 -0.10293217 C156.75386826 -0.10211966 173.74287091 -0.12125049 190.73193665 -0.14945666 C208.19780847 -0.17822441 225.66363707 -0.19199479 243.12953317 -0.19026911 C252.92656922 -0.18960652 262.72351225 -0.19504145 272.52052689 -0.21662521 C280.86343515 -0.23488835 289.20620824 -0.23914242 297.54912789 -0.22560637 C301.80028358 -0.2191023 306.05118032 -0.21886604 310.30231094 -0.23631287 C314.2048317 -0.25216326 318.10689081 -0.24905976 322.00940113 -0.2317446 C323.41045647 -0.22870075 324.81154731 -0.23220667 326.21256073 -0.24346475 C339.20361235 -0.34082326 352.27382594 1.79701613 363.84091187 8.01742554 C364.83103271 8.53284912 364.83103271 8.53284912 365.84115601 9.0586853 C371.60999727 12.15727637 376.63777239 15.83739581 381.46591187 20.26742554 C382.22130249 20.93129272 382.97669312 21.59515991 383.75497437 22.27914429 C397.10617799 34.6897992 406.59146915 53.18732107 407.65280223 71.49042249 C407.72882008 75.26151461 407.74257572 79.02994023 407.7333374 82.80151367 C407.73707961 84.25892285 407.7416834 85.71633003 407.74706805 87.17373407 C407.75924311 91.15643117 407.7590441 95.13904392 407.7566793 99.12175536 C407.75626973 103.42596068 407.76732365 107.73013945 407.77679443 112.03433228 C407.79337564 120.45921198 407.79890269 128.8840637 407.80001919 137.30895837 C407.80097111 144.16118029 407.80508858 151.01339302 407.81142044 157.86561203 C407.82902562 177.31496966 407.83826054 196.76430527 407.83675949 216.21367092 C407.83667958 217.26120975 407.83659967 218.30874858 407.83651733 219.38803101 C407.83643557 220.43685665 407.83635381 221.4856823 407.83626957 222.56629054 C407.83545706 239.55538193 407.8545879 256.54438459 407.88279407 273.53345032 C407.91156181 290.99932214 407.9253322 308.46515074 407.92360651 325.93104684 C407.92294392 335.72808289 407.92837885 345.52502592 407.94996262 355.32204056 C407.96822575 363.66494882 407.97247982 372.00772191 407.95894377 380.35064156 C407.9524397 384.60179725 407.95220344 388.852694 407.96965027 393.10382462 C407.98550066 397.00634538 407.98239716 400.90840448 407.965082 404.8109148 C407.96203815 406.21197014 407.96554407 407.61306099 407.97680216 409.0140744 C408.07416066 422.00512602 405.93632128 435.07533961 399.71591187 446.64242554 C399.37229614 447.3025061 399.02868042 447.96258667 398.6746521 448.64266968 C395.57606103 454.41151095 391.89594159 459.43928606 387.46591187 464.26742554 C386.80204468 465.02281616 386.13817749 465.77820679 385.45419312 466.55648804 C373.0435382 479.90769166 354.54601634 489.39298282 336.24291492 490.4543159 C332.47182279 490.53033375 328.70339718 490.54408939 324.93182373 490.53485107 C323.47441455 490.53859329 322.01700737 490.54319707 320.55960333 490.54858172 C316.57690623 490.56075678 312.59429348 490.56055777 308.61158204 490.55819297 C304.30737672 490.5577834 300.00319795 490.56883732 295.69900513 490.57830811 C287.27412542 490.59488931 278.8492737 490.60041636 270.42437904 490.60153286 C263.57215711 490.60248478 256.71994439 490.60660225 249.86772537 490.61293411 C230.41836774 490.63053929 210.96903214 490.63977421 191.51966648 490.63827316 C190.47212765 490.63819325 189.42458882 490.63811334 188.3453064 490.63803101 C187.29648075 490.63794924 186.2476551 490.63786748 185.16704686 490.63778324 C168.17795547 490.63697073 151.18895282 490.65610157 134.19988708 490.68430774 C116.73401526 490.71307548 99.26818666 490.72684587 81.80229056 490.72512019 C72.00525451 490.72445759 62.20831148 490.72989252 52.41129684 490.75147629 C44.06838858 490.76973942 35.72561549 490.77399349 27.38269584 490.76045744 C23.13154016 490.75395338 18.88064341 490.75371712 14.62951279 490.77116394 C10.72699203 490.78701433 6.82493292 490.78391084 2.9224226 490.76659568 C1.52136726 490.76355183 0.12027642 490.76705775 -1.280737 490.77831583 C-14.27178862 490.87567433 -27.34200221 488.73783495 -38.90908813 482.51742554 C-39.5691687 482.17380981 -40.22924927 481.83019409 -40.90933228 481.47616577 C-46.67817354 478.3775747 -51.70594866 474.69745526 -56.53408813 470.26742554 C-57.28947876 469.60355835 -58.04486938 468.93969116 -58.82315063 468.25570679 C-72.17435426 455.84505187 -81.65964542 437.34753001 -82.7209785 419.04442859 C-82.79699635 415.27333646 -82.81075199 411.50491085 -82.80151367 407.7333374 C-82.80525588 406.27592822 -82.80985967 404.81852104 -82.81524432 403.36111701 C-82.82741938 399.37841991 -82.82722037 395.39580715 -82.82485557 391.41309571 C-82.824446 387.1088904 -82.83549992 382.80471162 -82.8449707 378.5005188 C-82.86155191 370.07563909 -82.86707896 361.65078737 -82.86819546 353.22589271 C-82.86914738 346.37367078 -82.87326485 339.52145806 -82.87959671 332.66923904 C-82.89720189 313.21988141 -82.90643681 293.77054581 -82.90493576 274.32118015 C-82.90485585 273.27364132 -82.90477594 272.2261025 -82.9046936 271.14682007 C-82.90461184 270.09799442 -82.90453008 269.04916877 -82.90444584 267.96856053 C-82.90363333 250.97946914 -82.92276417 233.99046649 -82.95097034 217.00140075 C-82.97973808 199.53552893 -82.99350847 182.06970033 -82.99178278 164.60380423 C-82.99112019 154.80676818 -82.99655512 145.00982515 -83.01813889 135.21281052 C-83.03640202 126.86990226 -83.04065609 118.52712917 -83.02712004 110.18420951 C-83.02061597 105.93305383 -83.02037971 101.68215708 -83.03782654 97.43102646 C-83.05367693 93.5285057 -83.05057343 89.62644659 -83.03325827 85.72393627 C-83.03021442 84.32288093 -83.03372034 82.92179009 -83.04497842 81.52077667 C-83.14233693 68.52972505 -81.00449755 55.45951146 -74.78408813 43.89242554 C-74.44047241 43.23234497 -74.09685669 42.5722644 -73.74282837 41.8921814 C-70.6442373 36.12334013 -66.96411786 31.09556501 -62.53408813 26.26742554 C-61.87022095 25.51203491 -61.20635376 24.75664429 -60.52236938 23.97836304 C-44.45852573 6.69711164 -23.04935267 -0.05645844 0 0 Z " fill="#000000" transform="translate(115.53408813476563,29.732574462890625)"/>
<path d="M0 0 C50 50 50 50 52.66418457 52.68005371 C54.66888072 54.67113029 56.70956112 56.50197745 58.875 58.3125 C62.39453333 61.35480848 65.41482795 64.63260655 68.4296875 68.16796875 C71.16615066 71.36050911 73.98510259 74.27139529 77.40767419 76.72849268 C81.34490376 79.74858538 84.45545548 82.19914374 85.92368436 87.05470479 C86.2596796 90.7202952 86.28546571 94.27175191 86.20254517 97.95204163 C86.20691164 99.35813616 86.21567803 100.76422267 86.22843683 102.17026609 C86.25070992 106.01611968 86.2109333 109.85916788 86.16065621 113.70466411 C86.11735027 117.85791485 86.13209367 122.01101561 86.13967896 126.16442871 C86.14491504 133.35432803 86.11362101 140.54331782 86.05730057 147.73298836 C85.97592574 158.12779733 85.94997575 168.52216785 85.93742065 178.91726082 C85.91555044 195.78354997 85.84904543 212.64935466 85.75439453 229.51538086 C85.66256225 245.89621563 85.59179884 262.27691867 85.54931641 278.65795898 C85.54668917 279.66818597 85.54406194 280.67841296 85.54135509 281.71925289 C85.52830443 286.78741651 85.51566742 291.85558106 85.50323606 296.92374623 C85.39961876 338.94959448 85.21529603 380.97454637 85 423 C56.95 423 28.9 423 0 423 C0 283.41 0 143.82 0 0 Z " fill="#FEFEFE" transform="translate(319,62)"/>
<path d="M0 0 C0.66 0 1.32 0 2 0 C2 111.87 2 223.74 2 339 C-26.38 339 -54.76 339 -84 339 C-84.41967366 306.71027424 -84.77016468 274.42321661 -84.97024126 242.13158007 C-84.9940018 238.31061564 -85.0185942 234.48965698 -85.04370117 230.66870117 C-85.04868507 229.90808769 -85.05366897 229.14747421 -85.05880389 228.36381183 C-85.14125361 216.08287517 -85.29092746 203.80364585 -85.46590313 191.52371868 C-85.64422642 178.90262516 -85.74924949 166.28241929 -85.7876814 153.66011792 C-85.81362519 145.88396726 -85.89521533 138.11264261 -86.05041287 130.33798001 C-86.16371218 124.35363635 -86.17449561 118.37335133 -86.14904594 112.38781548 C-86.15423343 109.94924651 -86.19150625 107.51047914 -86.26490402 105.07300949 C-86.61532419 92.82541102 -86.11635883 84.05344842 -77.44264537 74.81288463 C-73.46299541 70.98533743 -69.2931727 67.46747939 -65 64 C-63.51404883 62.72473005 -62.03437755 61.44208934 -60.56245995 60.15064716 C-59.63208666 59.33667421 -59.63208666 59.33667421 -58.68291795 58.50625736 C-56.20207713 56.28583733 -53.84040787 53.95991203 -51.48950195 51.60302734 C-50.99893311 51.11260452 -50.50836426 50.6221817 -50.00292969 50.11689758 C-48.41232589 48.52560783 -46.82527718 46.93082466 -45.23828125 45.3359375 C-44.11848138 44.21426736 -42.99845668 43.09282163 -41.8782196 41.97158813 C-38.95007227 39.03965186 -36.02493876 36.10472718 -33.10046387 33.16912842 C-30.12804052 30.18645674 -27.15277317 27.20662502 -24.17773438 24.2265625 C-18.94409779 18.98339822 -13.7129348 13.73777735 -8.4835968 8.49032593 C-5.99131581 5.99129228 -3.49621133 3.49510722 -1 1 C-0.67 0.67 -0.34 0.34 0 0 Z " fill="#FBFBFB" transform="translate(233,148)"/>
<path d="M0 0 C0.39647973 10.78766494 0.69720978 21.57355892 0.88080692 32.36706448 C0.96900073 37.38122374 1.08824933 42.39034989 1.2824707 47.40161133 C2.67595216 84.29940513 2.67595216 84.29940513 -5.91322327 93.80812073 C-8.79855625 96.39927573 -11.75402233 98.64478835 -15.03184509 100.71470642 C-17.72620439 102.47424409 -19.79705443 104.66744177 -22 107 C-23.79062623 108.63979412 -25.5893226 110.27080443 -27.39453125 111.89453125 C-34.7451798 118.57198559 -41.7055147 125.62911939 -48.6875 132.6875 C-51.18855671 135.21508642 -53.69289652 137.73935483 -56.19921875 140.26171875 C-56.76887863 140.83967697 -57.33853851 141.41763519 -57.92546082 142.0131073 C-59.26486579 143.36099173 -60.62978378 144.68344935 -62 146 C-62.33 146 -62.66 146 -63 146 C-63.58563071 135.35214482 -64.02647576 124.70825003 -64.2953043 114.0474329 C-64.42452455 109.09304691 -64.59873668 104.1498441 -64.88598633 99.2019043 C-66.87163826 64.09252873 -66.87163826 64.09252873 -57.49951172 52.84326172 C-52.51742641 47.29175355 -46.84429875 42.56312992 -40.8377533 38.16331482 C-37.90081059 36.02857355 -37.90081059 36.02857355 -35.25611877 33.22450256 C-33 31 -33 31 -31 31 C-30.74162354 30.40388916 -30.48324707 29.80777832 -30.21704102 29.19360352 C-28.89576334 26.81212309 -27.62917817 25.61409677 -25.52734375 23.90234375 C-20.23398709 19.42242947 -15.42726307 14.49833338 -10.5625 9.5625 C-8.77440574 7.74906068 -6.98416643 5.93773299 -5.19140625 4.12890625 C-4.40967041 3.33556885 -3.62793457 2.54223145 -2.82250977 1.72485352 C-1 0 -1 0 0 0 Z " fill="#FCFCFC" transform="translate(309,74)"/>
</svg>
